<?xml version="1.0" encoding="UTF-8" standalone="no"?>
<!-- Created with Inkscape (http://www.inkscape.org/) -->

<svg
   width="1920"
   height="1080"
   viewBox="0 0 507.99998 285.75"
   version="1.1"
   id="svg5"
   xml:space="preserve"
   inkscape:version="1.2.2 (b0a8486541, 2022-12-01)"
   sodipodi:docname="cosmic_16_9.svg"
   xmlns:inkscape="http://www.inkscape.org/namespaces/inkscape"
   xmlns:sodipodi="http://sodipodi.sourceforge.net/DTD/sodipodi-0.dtd"
   xmlns="http://www.w3.org/2000/svg"
   xmlns:svg="http://www.w3.org/2000/svg"><sodipodi:namedview
     id="namedview7"
     pagecolor="#505050"
     bordercolor="#eeeeee"
     borderopacity="1"
     inkscape:showpageshadow="0"
     inkscape:pageopacity="0"
     inkscape:pagecheckerboard="0"
     inkscape:deskcolor="#505050"
     inkscape:document-units="mm"
     showgrid="false"
     inkscape:zoom="0.47140452"
     inkscape:cx="916.41039"
     inkscape:cy="509.11688"
     inkscape:window-width="2560"
     inkscape:window-height="1011"
     inkscape:window-x="0"
     inkscape:window-y="0"
     inkscape:window-maximized="1"
     inkscape:current-layer="layer1" /><defs
     id="defs2"><rect
       x="1920"
       y="1080"
       width="1167.9249"
       height="497.71472"
       id="rect1320" /><rect
       x="553.89423"
       y="0"
       width="1366.1058"
       height="540"
       id="rect969" /><rect
       x="553.89423"
       y="0"
       width="1366.1058"
       height="540"
       id="rect1237" /><rect
       x="553.89423"
       y="0"
       width="1366.1058"
       height="540"
       id="rect1243" /></defs><g
     inkscape:label="Layer 1"
     inkscape:groupmode="layer"
     id="layer1"><rect
       style="fill:#000000;stroke-width:0.0700041"
       id="rect111"
       width="508"
       height="285.75"
       x="0"
       y="0" /><path
       id="path3338"
       d="m 126.89471,63.512596 c 0,0 -9.77111,0.737886 -22.21865,7.925711 -12.447519,7.187827 -26.065139,20.807809 -33.251732,33.257493 -7.186575,12.44967 -7.924327,22.22248 -7.924327,22.22248 0,0 -0.737762,-9.77281 -7.924343,-22.22248 C 48.389082,92.246116 34.771442,78.626134 22.323923,71.438307 9.8764014,64.250482 0.10528535,63.512596 0.10528535,63.512596 c 0,0 9.77111605,-0.737885 22.21863765,-7.925709 C 34.771442,48.399061 48.389082,34.779072 55.575658,22.3294 62.762239,9.8797254 63.500001,0.10691863 63.500001,0.10691863 c 0,0 0.737752,9.77280677 7.924327,22.22248137 7.186593,12.449672 20.804213,26.069661 33.251732,33.257487 12.44754,7.187824 22.21865,7.925709 22.21865,7.925709 z"
       style="fill:#ffffff;fill-opacity:1;stroke:#ffffff;stroke-width:2.81967;stroke-linecap:butt;stroke-linejoin:miter;stroke-miterlimit:4;stroke-dasharray:none;stroke-opacity:1" /><path
       id="path1227"
       d="m 253.68414,63.512596 c 0,0 -9.77111,0.737886 -22.21865,7.925711 -12.44752,7.187827 -26.06514,20.807809 -33.25173,33.257493 -7.18658,12.44967 -7.92433,22.22248 -7.92433,22.22248 0,0 -0.73776,-9.77281 -7.92434,-22.22248 -7.18658,-12.449684 -20.80422,-26.069666 -33.25174,-33.257493 -12.44752,-7.187825 -22.21864,-7.925711 -22.21864,-7.925711 0,0 9.77112,-0.737885 22.21864,-7.925709 12.44752,-7.187826 26.06516,-20.807815 33.25174,-33.257487 7.18658,-12.4496746 7.92434,-22.22248137 7.92434,-22.22248137 0,0 0.73775,9.77280677 7.92433,22.22248137 7.18659,12.449672 20.80421,26.069661 33.25173,33.257487 12.44754,7.187824 22.21865,7.925709 22.21865,7.925709 z"
       style="fill:#ffffff;fill-opacity:0;stroke:#ffffff;stroke-width:2.81966;stroke-linecap:butt;stroke-linejoin:miter;stroke-miterlimit:4;stroke-dasharray:2.81966, 2.81966;stroke-dashoffset:0;stroke-opacity:1" /><text
       xml:space="preserve"
       transform="scale(0.26458333)"
       id="text1318"
       style="font-style:normal;font-variant:normal;font-weight:normal;font-stretch:normal;font-size:266.667px;font-family:Inter;-inkscape-font-specification:Inter;white-space:pre;shape-inside:url(#rect1320);display:inline;fill:#ffffff;fill-opacity:0;stroke:#ffffff;stroke-width:12;stroke-linejoin:miter;stroke-dasharray:none;stroke-opacity:1" /><path
       id="path1332"
       d="m 253.68414,190.32395 c 0,0 -9.77111,0.73789 -22.21865,7.92571 -12.44752,7.18783 -26.06514,20.80781 -33.25173,33.2575 -7.18658,12.44967 -7.92433,22.22248 -7.92433,22.22248 0,0 -0.73776,-9.77281 -7.92434,-22.22248 -7.18658,-12.44969 -20.80422,-26.06967 -33.25174,-33.2575 -12.44752,-7.18782 -22.21863,-7.92571 -22.21863,-7.92571 0,0 9.77111,-0.73788 22.21863,-7.92571 12.44752,-7.18782 26.06516,-20.80781 33.25174,-33.25748 7.18658,-12.44968 7.92434,-22.22248 7.92434,-22.22248 0,0 0.73775,9.7728 7.92433,22.22248 7.18659,12.44967 20.80421,26.06966 33.25173,33.25748 12.44754,7.18783 22.21865,7.92571 22.21865,7.92571 z"
       style="fill:#ffffff;fill-opacity:1;stroke:#ffffff;stroke-width:2.81967;stroke-linecap:butt;stroke-linejoin:miter;stroke-miterlimit:4;stroke-dasharray:none;stroke-opacity:1" /><path
       id="path1334"
       d="m 126.89471,190.32395 c 0,0 -9.77111,0.73789 -22.21865,7.92571 -12.447519,7.18783 -26.065139,20.80781 -33.251729,33.2575 -7.18658,12.44967 -7.92433,22.22248 -7.92433,22.22248 0,0 -0.73776,-9.77281 -7.92434,-22.22248 -7.18658,-12.44969 -20.80422,-26.06967 -33.25174,-33.2575 -12.44752,-7.18782 -22.21864,-7.92571 -22.21864,-7.92571 0,0 9.77112,-0.73788 22.21864,-7.92571 12.44752,-7.18782 26.06516,-20.80781 33.25174,-33.25748 7.18658,-12.44968 7.92434,-22.22248 7.92434,-22.22248 0,0 0.73775,9.7728 7.92433,22.22248 7.18659,12.44967 20.80421,26.06966 33.251729,33.25748 12.44754,7.18783 22.21865,7.92571 22.21865,7.92571 z"
       style="fill:#ffffff;fill-opacity:0;stroke:#ffffff;stroke-width:2.81967;stroke-linecap:butt;stroke-linejoin:miter;stroke-miterlimit:4;stroke-dasharray:2.81967, 2.81967;stroke-dashoffset:0;stroke-opacity:1" /><ellipse
       style="fill:#ffffff;fill-opacity:1;stroke:#ffffff;stroke-width:2.49237;stroke-linejoin:miter;stroke-dasharray:2.49237, 2.49237;stroke-dashoffset:0;stroke-opacity:0"
       id="path1450"
       cx="482.99954"
       cy="260.74951"
       rx="23.754265"
       ry="23.754559" /><ellipse
       style="fill:#ffffff;fill-opacity:1;stroke:#ffffff;stroke-width:2.49237;stroke-linejoin:miter;stroke-dasharray:2.49237, 2.49237;stroke-dashoffset:0;stroke-opacity:0"
       id="ellipse1452"
       cx="432.99951"
       cy="210.74858"
       rx="23.754265"
       ry="23.754559" /><ellipse
       style="fill:#000000;fill-opacity:1;stroke:#ffffff;stroke-width:2.64583;stroke-linejoin:miter;stroke-dasharray:2.64583, 2.64583;stroke-dashoffset:0;stroke-opacity:1"
       id="ellipse1454"
       cx="482.99954"
       cy="210.74858"
       rx="23.754265"
       ry="23.754559" /><ellipse
       style="fill:#ffffff;fill-opacity:0;stroke:#ffffff;stroke-width:2.64583;stroke-linejoin:miter;stroke-dasharray:2.64583, 2.64583;stroke-dashoffset:0;stroke-opacity:1"
       id="ellipse1456"
       cx="432.99951"
       cy="260.74951"
       rx="23.754265"
       ry="23.754559" /><path
       id="path1544"
       d="m 380.57972,63.511798 c 0,0 -9.77111,0.73789 -22.21865,7.92571 -12.44752,7.18783 -26.06514,20.80781 -33.25173,33.257502 -7.18658,12.44967 -7.92433,22.22248 -7.92433,22.22248 0,0 -0.73776,-9.77281 -7.92434,-22.22248 -7.18658,-12.449692 -20.80422,-26.069672 -33.25174,-33.257502 -12.44752,-7.18782 -22.21863,-7.92571 -22.21863,-7.92571 0,0 9.77111,-0.73788 22.21863,-7.92571 12.44752,-7.18782 26.06516,-20.80781 33.25174,-33.25748 7.18658,-12.4496799 7.92434,-22.2224799 7.92434,-22.2224799 0,0 0.73775,9.7728 7.92433,22.2224799 7.18659,12.44967 20.80421,26.06966 33.25173,33.25748 12.44754,7.18783 22.21865,7.92571 22.21865,7.92571 z"
       style="fill:#ffffff;fill-opacity:1;stroke:#ffffff;stroke-width:2.81967;stroke-linecap:butt;stroke-linejoin:miter;stroke-miterlimit:4;stroke-dasharray:none;stroke-opacity:1" /><path
       id="path1546"
       d="m 507.86896,63.405677 c 0,0 -9.77111,0.737886 -22.21865,7.925711 -12.44752,7.187827 -26.06514,20.807809 -33.25173,33.257492 -7.18658,12.44967 -7.92433,22.22248 -7.92433,22.22248 0,0 -0.73776,-9.77281 -7.92434,-22.22248 -7.18658,-12.449683 -20.80422,-26.069665 -33.25174,-33.257492 -12.44752,-7.187825 -22.21864,-7.925711 -22.21864,-7.925711 0,0 9.77112,-0.737885 22.21864,-7.925709 12.44752,-7.187826 26.06516,-20.807815 33.25174,-33.257487 C 443.73649,9.7728068 444.47425,0 444.47425,0 c 0,0 0.73775,9.7728068 7.92433,22.222481 7.18659,12.449672 20.80421,26.069661 33.25173,33.257487 12.44754,7.187824 22.21865,7.925709 22.21865,7.925709 z"
       style="fill:#ffffff;fill-opacity:0;stroke:#ffffff;stroke-width:2.81966;stroke-linecap:butt;stroke-linejoin:miter;stroke-miterlimit:4;stroke-dasharray:2.81966, 2.81966;stroke-dashoffset:0;stroke-opacity:1" /><path
       id="path1548"
       d="m 380.47357,190.32395 c 0,0 -9.77111,0.73789 -22.21865,7.92571 -12.44752,7.18783 -26.06514,20.80781 -33.25173,33.25749 -7.18658,12.44967 -7.92433,22.22248 -7.92433,22.22248 0,0 -0.73776,-9.77281 -7.92434,-22.22248 -7.18658,-12.44968 -20.80422,-26.06966 -33.25174,-33.25749 -12.44752,-7.18782 -22.21864,-7.92571 -22.21864,-7.92571 0,0 9.77112,-0.73788 22.21864,-7.92571 12.44752,-7.18783 26.06516,-20.80781 33.25174,-33.25749 7.18658,-12.44967 7.92434,-22.22248 7.92434,-22.22248 0,0 0.73775,9.77281 7.92433,22.22248 7.18659,12.44968 20.80421,26.06966 33.25173,33.25749 12.44754,7.18782 22.21865,7.92571 22.21865,7.92571 z"
       style="fill:#ffffff;fill-opacity:0;stroke:#ffffff;stroke-width:2.81966;stroke-linecap:butt;stroke-linejoin:miter;stroke-miterlimit:4;stroke-dasharray:2.81966, 2.81966;stroke-dashoffset:0;stroke-opacity:1" /></g></svg>
