<?xml version="1.0" encoding="UTF-8" standalone="no"?>
<!-- Created with Inkscape (http://www.inkscape.org/) -->

<svg
   width="2560"
   height="1080"
   viewBox="0 0 677.33334 285.75"
   version="1.1"
   id="svg5"
   xml:space="preserve"
   inkscape:version="1.2.2 (b0a8486541, 2022-12-01)"
   sodipodi:docname="wallpaper.svg"
   xmlns:inkscape="http://www.inkscape.org/namespaces/inkscape"
   xmlns:sodipodi="http://sodipodi.sourceforge.net/DTD/sodipodi-0.dtd"
   xmlns="http://www.w3.org/2000/svg"
   xmlns:svg="http://www.w3.org/2000/svg"><sodipodi:namedview
     id="namedview7"
     pagecolor="#505050"
     bordercolor="#eeeeee"
     borderopacity="1"
     inkscape:showpageshadow="false"
     inkscape:pageopacity="0"
     inkscape:pagecheckerboard="true"
     inkscape:deskcolor="#505050"
     inkscape:document-units="mm"
     showgrid="false"
     showborder="false"
     borderlayer="false"
     shape-rendering="auto"
     inkscape:zoom="0.5"
     inkscape:cx="1269"
     inkscape:cy="606"
     inkscape:window-width="2548"
     inkscape:window-height="1010"
     inkscape:window-x="1924"
     inkscape:window-y="44"
     inkscape:window-maximized="1"
     inkscape:current-layer="layer1"
     showguides="false"><sodipodi:guide
       position="338.66666,285.75"
       orientation="1,0"
       id="guide845"
       inkscape:locked="false" /></sodipodi:namedview><defs
     id="defs2" /><g
     inkscape:label="Layer 1"
     inkscape:groupmode="layer"
     id="layer1"><rect
       style="fill:#282828;stroke:none;stroke-width:2.11089;stroke-dasharray:2.11089, 2.11089;stroke-dashoffset:0;fill-opacity:1"
       id="rect1762"
       width="677.33331"
       height="285.75"
       x="0"
       y="-1.7763568e-15" /><path
       id="path1976"
       d="m 338.66666,142.87499 c 0,0 -16.03346,1.21061 -36.45866,13.00311 -20.42521,11.79246 -42.77047,34.13772 -54.56296,54.56293 -11.7925,20.42519 -13.00309,36.45866 -13.00309,36.45866 0,0 -1.21058,-16.03347 -13.00307,-36.45866 -11.79252,-20.42521 -34.13773,-42.77047 -54.56291,-54.56293 -20.42523,-11.7925 -36.45869,-13.00311 -36.45869,-13.00311 0,0 16.03346,-1.21057 36.45869,-13.00309 20.42518,-11.79248 42.77039,-34.137713 54.56291,-54.562935 11.79249,-20.425177 13.00307,-36.45865 13.00307,-36.45865 0,0 1.21059,16.033473 13.00309,36.45865 11.79249,20.425222 34.13775,42.770455 54.56296,54.562935 20.4252,11.79252 36.45866,13.00309 36.45866,13.00309 z"
       style="fill:none;fill-opacity:1;stroke:#3c3836;stroke-width:1.32291667;stroke-linecap:butt;stroke-linejoin:bevel;stroke-miterlimit:4;stroke-dasharray:none;stroke-opacity:1" /><path
       id="path847"
       d="m 546.71604,142.87499 c 0,0 -16.03346,1.21061 -36.45866,13.00311 -20.42521,11.79246 -42.77047,34.13772 -54.56296,54.56293 -11.7925,20.42519 -13.00309,36.45866 -13.00309,36.45866 0,0 -1.21058,-16.03347 -13.00307,-36.45866 -11.79252,-20.42521 -34.13773,-42.77047 -54.56291,-54.56293 -20.42523,-11.7925 -36.45869,-13.00311 -36.45869,-13.00311 0,0 16.03346,-1.21057 36.45869,-13.00309 20.42518,-11.79248 42.77039,-34.137713 54.56291,-54.562935 11.79249,-20.425177 13.00307,-36.45865 13.00307,-36.45865 0,0 1.21059,16.033473 13.00309,36.45865 11.79249,20.425222 34.13775,42.770455 54.56296,54.562935 20.4252,11.79252 36.45866,13.00309 36.45866,13.00309 z"
       style="fill:none;fill-opacity:1;stroke:#3c3836;stroke-width:1.32291667;stroke-linecap:butt;stroke-linejoin:bevel;stroke-miterlimit:4;stroke-dasharray:none;stroke-opacity:1" /></g></svg>
